<svg width="68" height="68" viewBox="0 0 68 68" fill="none" xmlns="http://www.w3.org/2000/svg">
<path d="M65.875 6.375C65.875 4.25 63.75 2.125 61.625 2.125H6.375C4.25 2.125 2.125 4.25 2.125 6.375V46.75H65.875V6.375Z" fill="#212528"/>
<path d="M2.125 46.75V51C2.125 53.125 4.25 55.25 6.375 55.25H61.625C63.75 55.25 65.875 53.125 65.875 51V46.75H2.125Z" fill="#DDDDDD"/>
<path d="M25.5 57.375C25.5 61.625 21.25 61.625 17 61.625H51C46.75 61.625 42.5 61.625 42.5 57.375V55.25H25.5V57.375Z" fill="#BFBEBE"/>
<path d="M6.375 6.375H61.625V42.5H6.375V6.375Z" fill="#3E4347"/>
<path d="M34 51.9563C34.5868 51.9563 35.0625 51.4806 35.0625 50.8938C35.0625 50.307 34.5868 49.8313 34 49.8313C33.4132 49.8313 32.9375 50.307 32.9375 50.8938C32.9375 51.4806 33.4132 51.9563 34 51.9563Z" fill="#94989B"/>
<path d="M17 61.625H51V65.875H17V61.625Z" fill="#94989B"/>
</svg>
