<svg width="68" height="68" viewBox="0 0 68 68" fill="none" xmlns="http://www.w3.org/2000/svg">
<path fill-rule="evenodd" clip-rule="evenodd" d="M35.683 65.8977L35.649 65.9033L35.4478 66.0025L35.3912 66.0138L35.3515 66.0025L35.1503 65.9005C35.1201 65.8929 35.0974 65.8986 35.0823 65.9175L35.071 65.9458L35.0228 67.1585L35.037 67.2152L35.0653 67.252L35.36 67.4617L35.4025 67.473L35.4365 67.4617L35.7312 67.252L35.7652 67.2067L35.7765 67.1585L35.7283 65.9487C35.7208 65.9184 35.7057 65.9014 35.683 65.8977ZM36.431 65.5775L36.3913 65.5832L35.87 65.8467L35.8417 65.875L35.8332 65.9062L35.8842 67.1245L35.8983 67.1585L35.921 67.1812L36.4905 67.4418C36.5264 67.4513 36.5538 67.4437 36.5727 67.4192L36.584 67.3795L36.4877 65.6398C36.4782 65.6039 36.4593 65.5832 36.431 65.5775ZM34.4052 65.5832C34.3927 65.5756 34.3778 65.5731 34.3635 65.5763C34.3493 65.5795 34.3368 65.588 34.3287 65.6002L34.3117 65.6398L34.2153 67.3795C34.2172 67.4135 34.2333 67.4362 34.2635 67.4475L34.306 67.4418L34.8755 67.1783L34.9038 67.1557L34.9123 67.1245L34.9633 65.9062L34.9548 65.8722L34.9265 65.8438L34.4052 65.5832Z" fill="#14B8A6"/>
<path fill-rule="evenodd" clip-rule="evenodd" d="M32.3567 5.66675C30.9352 5.66682 29.5658 6.20109 28.5198 7.1636C27.4738 8.12611 26.8278 9.44656 26.7098 10.8631L25.6247 23.9021L20.7853 27.1264C19.621 27.9026 18.6663 28.9541 18.006 30.1878C17.3457 31.4215 17.0001 32.7991 17 34.1984V53.8334C17 56.0878 17.8955 58.2498 19.4896 59.8438C21.0837 61.4379 23.2457 62.3334 25.5 62.3334H42.5C44.7543 62.3334 46.9163 61.4379 48.5104 59.8438C50.1045 58.2498 51 56.0878 51 53.8334V34.1984C50.9999 32.7991 50.6543 31.4215 49.994 30.1878C49.3337 28.9541 48.379 27.9026 47.2147 27.1264L42.3753 23.9021L41.2902 10.8631C41.1722 9.44656 40.5262 8.12611 39.4802 7.1636C38.4342 6.20109 37.0648 5.66682 35.6433 5.66675H32.3567ZM45.3333 39.6667H34C33.2486 39.6667 32.5279 39.9653 31.9965 40.4966C31.4652 41.028 31.1667 41.7486 31.1667 42.5001C31.1667 43.2515 31.4652 43.9722 31.9965 44.5036C32.5279 45.0349 33.2486 45.3334 34 45.3334H45.3333V53.8334C45.3333 54.5849 45.0348 55.3055 44.5035 55.8369C43.9721 56.3682 43.2514 56.6668 42.5 56.6668H25.5C24.7486 56.6668 24.0279 56.3682 23.4965 55.8369C22.9652 55.3055 22.6667 54.5849 22.6667 53.8334V34.1984C22.6666 33.7321 22.7816 33.2729 23.0016 32.8617C23.2215 32.4505 23.5396 32.0999 23.9275 31.8411L28.7668 28.6168C29.477 28.1435 30.071 27.5161 30.5047 26.7811C30.9384 26.0462 31.2005 25.2228 31.2715 24.3724L32.3567 11.3334H35.6433L36.7285 24.3724C36.7995 25.2228 37.0616 26.0462 37.4953 26.7811C37.929 27.5161 38.523 28.1435 39.2332 28.6168L44.0725 31.8411C44.4604 32.0999 44.7785 32.4505 44.9984 32.8617C45.2184 33.2729 45.3334 33.7321 45.3333 34.1984V39.6667Z" fill="#14B8A6"/>
</svg>
