<svg width="173" height="24" viewBox="0 0 173 24" fill="none" xmlns="http://www.w3.org/2000/svg">
<path d="M3.84995 8.6201C3.70399 7.96262 3.7264 7.27894 3.91511 6.63244C4.10381 5.98593 4.4527 5.39754 4.92942 4.92182C5.40614 4.4461 5.99526 4.09844 6.64216 3.91109C7.28905 3.72374 7.97278 3.70276 8.62995 3.8501C8.99166 3.2844 9.48995 2.81886 10.0789 2.49638C10.6678 2.17391 11.3285 2.00488 11.9999 2.00488C12.6714 2.00488 13.332 2.17391 13.921 2.49638C14.5099 2.81886 15.0082 3.2844 15.3699 3.8501C16.0281 3.70212 16.713 3.72301 17.3609 3.91081C18.0089 4.09862 18.5988 4.44724 19.0758 4.92425C19.5528 5.40126 19.9014 5.99117 20.0892 6.6391C20.277 7.28703 20.2979 7.97193 20.1499 8.6301C20.7156 8.99181 21.1812 9.4901 21.5037 10.079C21.8261 10.668 21.9952 11.3286 21.9952 12.0001C21.9952 12.6715 21.8261 13.3322 21.5037 13.9211C21.1812 14.5101 20.7156 15.0084 20.1499 15.3701C20.2973 16.0273 20.2763 16.711 20.089 17.3579C19.9016 18.0048 19.554 18.5939 19.0782 19.0706C18.6025 19.5473 18.0141 19.8962 17.3676 20.0849C16.7211 20.2736 16.0374 20.2961 15.3799 20.1501C15.0187 20.718 14.52 21.1855 13.9301 21.5094C13.3401 21.8333 12.678 22.0032 12.0049 22.0032C11.3319 22.0032 10.6698 21.8333 10.0798 21.5094C9.48987 21.1855 8.99119 20.718 8.62995 20.1501C7.97278 20.2974 7.28905 20.2765 6.64216 20.0891C5.99526 19.9018 5.40614 19.5541 4.92942 19.0784C4.4527 18.6027 4.10381 18.0143 3.91511 17.3678C3.7264 16.7213 3.70399 16.0376 3.84995 15.3801C3.27991 15.0193 2.81036 14.5203 2.485 13.9293C2.15963 13.3384 1.98901 12.6747 1.98901 12.0001C1.98901 11.3255 2.15963 10.6618 2.485 10.0709C2.81036 9.47992 3.27991 8.98085 3.84995 8.6201Z" stroke="#22C55E" stroke-width="2" stroke-linecap="round" stroke-linejoin="round"/>
<path d="M9 12L11 14L15 10" stroke="#22C55E" stroke-width="2" stroke-linecap="round" stroke-linejoin="round"/>
<path d="M38.3704 11.932C38.3704 15.012 36.3544 17.168 33.4844 17.168C30.6284 17.168 28.6404 15.012 28.6404 11.932C28.6404 8.866 30.6424 6.696 33.4984 6.696C36.3684 6.696 38.3704 8.852 38.3704 11.932ZM36.9284 11.932C36.9284 9.58 35.5564 8.026 33.4984 8.026C31.4404 8.026 30.0824 9.58 30.0824 11.932C30.0824 14.284 31.4404 15.852 33.4984 15.852C35.5564 15.852 36.9284 14.27 36.9284 11.932ZM41.2452 17H39.9292V6.696H41.2452V17ZM45.9265 17.168C43.9385 17.168 42.7345 15.684 42.7345 13.598C42.7345 11.498 43.9525 9.958 45.9825 9.958C47.0325 9.958 47.9145 10.42 48.3765 11.26V6.696H49.6785V17H48.5025L48.3905 15.754C47.9425 16.692 47.0185 17.168 45.9265 17.168ZM46.1925 15.978C47.5365 15.978 48.3625 14.984 48.3625 13.556C48.3625 12.156 47.5365 11.148 46.1925 11.148C44.8485 11.148 44.0645 12.156 44.0645 13.556C44.0645 14.97 44.8485 15.978 46.1925 15.978ZM55.4051 20.066V10.154H56.5951L56.6931 11.386C57.1551 10.448 58.0791 9.958 59.1711 9.958C61.1311 9.958 62.3491 11.428 62.3491 13.528C62.3491 15.614 61.2011 17.182 59.1711 17.182C58.0791 17.182 57.1691 16.72 56.7211 15.88V20.066H55.4051ZM56.7351 13.584C56.7351 14.984 57.5471 15.992 58.8911 15.992C60.2351 15.992 61.0331 14.984 61.0331 13.584C61.0331 12.17 60.2351 11.162 58.8911 11.162C57.5471 11.162 56.7351 12.156 56.7351 13.584ZM65.1157 16.986H63.7997V6.696H65.1157V11.204C65.5497 10.462 66.3757 9.958 67.4397 9.958C69.1897 9.958 70.0297 11.064 70.0297 12.814V17H68.7137V13.108C68.7137 11.722 68.0557 11.162 67.0757 11.162C65.8017 11.162 65.1157 12.086 65.1157 13.262V16.986ZM71.4044 13.57C71.4044 11.456 72.9164 9.972 74.9744 9.972C77.0184 9.972 78.5304 11.456 78.5304 13.57C78.5304 15.684 77.0184 17.168 74.9744 17.168C72.9164 17.168 71.4044 15.684 71.4044 13.57ZM72.7344 13.57C72.7344 14.998 73.6444 15.992 74.9744 15.992C76.2904 15.992 77.2144 14.998 77.2144 13.57C77.2144 12.142 76.2904 11.148 74.9744 11.148C73.6444 11.148 72.7344 12.142 72.7344 13.57ZM81.3032 17H79.9872V10.154H81.1772L81.3172 11.204C81.7512 10.42 82.6192 9.958 83.5852 9.958C85.3912 9.958 86.2172 11.064 86.2172 12.814V17H84.9012V13.108C84.9012 11.722 84.2572 11.162 83.2492 11.162C82.0172 11.162 81.3032 12.044 81.3032 13.374V17ZM90.9939 17.168C88.9779 17.168 87.5919 15.712 87.5919 13.584C87.5919 11.442 88.9499 9.958 90.9379 9.958C92.8839 9.958 94.1579 11.302 94.1579 13.332V13.822L88.8659 13.836C88.9639 15.278 89.7199 16.076 91.0219 16.076C92.0439 16.076 92.7159 15.656 92.9399 14.872H94.1719C93.8359 16.342 92.6879 17.168 90.9939 17.168ZM90.9379 11.064C89.7899 11.064 89.0619 11.75 88.8939 12.954H92.8419C92.8419 11.82 92.0999 11.064 90.9379 11.064ZM95.0678 15.012H96.3278C96.3278 15.712 96.8598 16.132 97.7278 16.132C98.6518 16.132 99.1838 15.754 99.1838 15.124C99.1838 14.662 98.9598 14.382 98.2458 14.2L97.0418 13.92C95.8238 13.626 95.2498 13.024 95.2498 12.016C95.2498 10.756 96.3138 9.958 97.8258 9.958C99.3238 9.958 100.304 10.798 100.332 12.1H99.0718C99.0438 11.414 98.5818 10.98 97.7838 10.98C96.9578 10.98 96.4958 11.344 96.4958 11.974C96.4958 12.436 96.8318 12.744 97.5038 12.912L98.7078 13.206C99.8698 13.486 100.444 14.018 100.444 15.04C100.444 16.342 99.3238 17.168 97.6998 17.168C96.0898 17.168 95.0678 16.314 95.0678 15.012ZM112.531 17L111.733 16.09C110.949 16.79 109.871 17.182 108.597 17.182C106.427 17.182 104.999 16.062 104.999 14.368C104.999 13.122 105.797 12.128 107.477 11.26C106.609 10.266 106.287 9.65 106.287 8.894C106.287 7.62 107.281 6.71 108.709 6.71C110.095 6.71 111.047 7.564 111.047 8.81C111.047 9.818 110.529 10.602 109.227 11.484L111.649 14.242C111.873 13.696 111.999 13.024 111.999 12.268H113.273C113.273 13.416 112.993 14.424 112.503 15.208L114.071 17H112.531ZM107.533 8.88C107.533 9.412 107.771 9.832 108.555 10.728C109.409 10.21 109.815 9.594 109.815 8.838C109.815 8.18 109.395 7.774 108.695 7.774C107.981 7.774 107.533 8.208 107.533 8.88ZM106.371 14.27C106.371 15.376 107.253 16.048 108.723 16.048C109.661 16.048 110.417 15.768 110.977 15.222L108.135 12.002C106.875 12.702 106.371 13.36 106.371 14.27ZM120.041 17H118.697V6.878H120.041L123.527 15.39L127.013 6.878H128.385V17H127.041V12.996C127.041 11.106 127.055 10.42 127.125 9.706L124.171 17H122.883L119.943 9.734C120.013 10.224 120.041 11.26 120.041 12.674V17ZM130.07 13.57C130.07 11.456 131.582 9.972 133.64 9.972C135.684 9.972 137.196 11.456 137.196 13.57C137.196 15.684 135.684 17.168 133.64 17.168C131.582 17.168 130.07 15.684 130.07 13.57ZM131.4 13.57C131.4 14.998 132.31 15.992 133.64 15.992C134.956 15.992 135.88 14.998 135.88 13.57C135.88 12.142 134.956 11.148 133.64 11.148C132.31 11.148 131.4 12.142 131.4 13.57ZM139.969 17H138.653V10.154H139.843L139.983 11.204C140.417 10.42 141.285 9.958 142.251 9.958C144.057 9.958 144.883 11.064 144.883 12.814V17H143.567V13.108C143.567 11.722 142.923 11.162 141.915 11.162C140.683 11.162 139.969 12.044 139.969 13.374V17ZM147.35 8.53C146.874 8.53 146.482 8.138 146.482 7.662C146.482 7.172 146.874 6.794 147.35 6.794C147.826 6.794 148.218 7.172 148.218 7.662C148.218 8.138 147.826 8.53 147.35 8.53ZM146.706 17V10.154H148.022V17H146.706ZM151.864 17H150.548V11.26H149.204V10.154H150.548V8.012H151.864V10.154H153.208V11.26H151.864V17ZM153.873 13.57C153.873 11.456 155.385 9.972 157.443 9.972C159.487 9.972 160.999 11.456 160.999 13.57C160.999 15.684 159.487 17.168 157.443 17.168C155.385 17.168 153.873 15.684 153.873 13.57ZM155.203 13.57C155.203 14.998 156.113 15.992 157.443 15.992C158.759 15.992 159.683 14.998 159.683 13.57C159.683 12.142 158.759 11.148 157.443 11.148C156.113 11.148 155.203 12.142 155.203 13.57ZM166.376 10.098V11.302H165.788C164.542 11.302 163.772 12.058 163.772 13.374V17H162.456V10.168H163.688L163.772 11.204C164.052 10.49 164.738 10.014 165.676 10.014C165.914 10.014 166.11 10.042 166.376 10.098ZM167.05 15.012H168.31C168.31 15.712 168.842 16.132 169.71 16.132C170.634 16.132 171.166 15.754 171.166 15.124C171.166 14.662 170.942 14.382 170.228 14.2L169.024 13.92C167.806 13.626 167.232 13.024 167.232 12.016C167.232 10.756 168.296 9.958 169.808 9.958C171.306 9.958 172.286 10.798 172.314 12.1H171.054C171.026 11.414 170.564 10.98 169.766 10.98C168.94 10.98 168.478 11.344 168.478 11.974C168.478 12.436 168.814 12.744 169.486 12.912L170.69 13.206C171.852 13.486 172.426 14.018 172.426 15.04C172.426 16.342 171.306 17.168 169.682 17.168C168.072 17.168 167.05 16.314 167.05 15.012Z" fill="#22C55E"/>
</svg>
