<svg width="52" height="51" viewBox="0 0 52 51" fill="none" xmlns="http://www.w3.org/2000/svg">
<rect width="52" height="51" rx="16" fill="#F0FFE5"/>
<path d="M24.6668 36.1666C22.3255 36.1737 20.0671 35.3006 18.3395 33.7205C16.6118 32.1404 15.5412 29.9687 15.3398 27.6361C15.1384 25.3035 15.8211 22.9804 17.2523 21.1276C18.6836 19.2748 20.759 18.0276 23.0668 17.6333C30.6668 16.1666 32.6668 15.4733 35.3335 12.1666C36.6668 14.8333 38.0001 17.74 38.0001 22.8333C38.0001 30.1666 31.6268 36.1666 24.6668 36.1666Z" fill="#A0F48A" stroke="#97BC79" stroke-width="2" stroke-linecap="round" stroke-linejoin="round"/>
<path d="M12.6667 37.5C12.6667 33.5 15.1334 30.3533 19.4401 29.5C22.6667 28.86 26.0001 26.8333 27.3334 25.5" fill="#A0F48A"/>
<path d="M12.6667 37.5C12.6667 33.5 15.1334 30.3533 19.4401 29.5C22.6667 28.86 26.0001 26.8333 27.3334 25.5" stroke="#97BC79" stroke-width="2" stroke-linecap="round" stroke-linejoin="round"/>
</svg>
