<svg width="52" height="51" viewBox="0 0 52 51" fill="none" xmlns="http://www.w3.org/2000/svg">
<rect width="52" height="51" rx="16" fill="#EED7D7"/>
<path d="M25.9999 37.9333C25.6888 37.9333 25.3777 37.8777 25.0666 37.7666C24.7555 37.6555 24.4777 37.4888 24.2333 37.2666C22.7888 35.9333 21.511 34.6333 20.3999 33.3666C19.2888 32.1 18.3613 30.8724 17.6173 29.684C16.8733 28.4955 16.3066 27.3511 15.9173 26.2506C15.5279 25.1502 15.3333 24.1 15.3333 23.1C15.3333 19.7666 16.4057 17.1111 18.5506 15.1333C20.6955 13.1555 23.1786 12.1666 25.9999 12.1666C28.8213 12.1666 31.3048 13.1555 33.4506 15.1333C35.5964 17.1111 36.6684 19.7666 36.6666 23.1C36.6666 24.1 36.4724 25.1502 36.0839 26.2506C35.6955 27.3511 35.1288 28.4955 34.3839 29.684C33.639 30.8724 32.711 32.1 31.5999 33.3666C30.4888 34.6333 29.211 35.9333 27.7666 37.2666C27.5221 37.4888 27.2444 37.6555 26.9333 37.7666C26.6221 37.8777 26.311 37.9333 25.9999 37.9333ZM25.9999 25.5C26.7333 25.5 27.3613 25.2391 27.8839 24.7173C28.4066 24.1955 28.6675 23.5675 28.6666 22.8333C28.6657 22.0991 28.4048 21.4715 27.8839 20.9506C27.363 20.4297 26.735 20.1684 25.9999 20.1666C25.2648 20.1648 24.6373 20.4262 24.1173 20.9506C23.5973 21.4751 23.3359 22.1026 23.3333 22.8333C23.3306 23.564 23.5919 24.192 24.1173 24.7173C24.6426 25.2426 25.2701 25.5035 25.9999 25.5Z" fill="#C70D0D"/>
</svg>
