<svg width="68" height="68" viewBox="0 0 68 68" fill="none" xmlns="http://www.w3.org/2000/svg">
<path d="M20.8987 0.285672L39.032 4.81901L39.4445 4.97767L53.0445 11.7777C53.3841 11.9461 53.67 12.2059 53.8702 12.5278C54.0704 12.8497 54.1769 13.221 54.1779 13.6001V23.9089L62.424 30.1014C62.7388 30.3365 62.9789 30.6575 63.1156 31.0259C63.2523 31.3942 63.2798 31.7941 63.1947 32.1777L58.6613 52.5777L58.5843 52.8315C58.4794 53.12 58.3109 53.3811 58.0911 53.5954C57.8713 53.8097 57.606 53.9716 57.3149 54.0691L43.7149 58.6025L43.6288 58.6297L27.7621 63.163C27.3465 63.2818 26.9038 63.2654 26.4981 63.1163C26.0923 62.9672 25.7444 62.6931 25.5045 62.3334L19.0445 52.6411L6.01575 47.2147L5.68935 47.0425C5.33382 46.8109 5.05936 46.4742 4.90416 46.0793C4.74896 45.6844 4.72076 45.2509 4.82348 44.8393L9.12108 27.6489L2.90135 19.3529C2.71422 19.1024 2.58717 18.8123 2.53 18.5049C2.47283 18.1975 2.48708 17.8811 2.57163 17.5801C2.65619 17.2792 2.8088 17.0016 3.01768 16.769C3.22655 16.5364 3.4861 16.3548 3.77628 16.2385L14.2981 12.027L18.5051 1.50967C18.6644 1.11163 18.945 0.773887 19.3071 0.544401C19.6692 0.314915 20.0945 0.205352 20.5224 0.231272L20.8987 0.285672ZM31.0624 19.4073L30.8448 19.6385C30.5767 19.8839 30.2479 20.0532 29.8925 20.1289C29.537 20.2046 29.1678 20.184 28.8229 20.0691L15.9347 15.7715L7.76561 19.0355L12.3533 25.1555H22.6667C23.2083 25.1555 23.7278 25.3707 24.1108 25.7537C24.4938 26.1367 24.7089 26.6562 24.7089 27.1978C24.7089 27.7394 24.4938 28.2589 24.1108 28.6419C23.7278 29.0249 23.2083 29.2401 22.6667 29.2401H12.9291L9.21175 44.123L21.1843 49.1187C21.4624 49.2336 21.7116 49.4085 21.9141 49.631L22.0955 49.8667L28.0749 58.8291L38.0936 55.9641L32.9211 52.7318C32.4618 52.4457 32.135 51.9888 32.0126 51.4617C31.8902 50.9346 31.9821 50.3804 32.2683 49.9211C32.5544 49.4619 33.0113 49.1351 33.5384 49.0126C34.0655 48.8902 34.6197 48.9822 35.0789 49.2683L41.9515 53.5614L45.6688 42.4185C45.763 42.1526 45.906 41.9066 46.0904 41.6931L46.2944 41.4982L57.9133 31.8195L51.8296 27.2545L42.4365 31.0081L40.4691 36.915L40.3013 37.2913C40.067 37.7007 39.698 38.0163 39.2572 38.1842C38.8164 38.3522 38.331 38.3622 37.8836 38.2126C37.4363 38.0629 37.0546 37.7628 36.8036 37.3634C36.5526 36.964 36.4478 36.4899 36.507 36.0219L36.5976 35.6185L38.8643 28.8185C39.0045 28.3944 39.28 28.0281 39.6485 27.7758L40.0429 27.5718L50.0933 23.5507V14.8558L39.1 9.35687L31.0624 19.4073ZM49.3544 44.2635L46.2944 53.439L54.9259 50.5603L57.9133 37.1281L49.3544 44.2635ZM18.5685 12.3489L28.764 15.7489L34.952 8.00594L21.6376 4.6694L18.5685 12.3489Z" fill="#F97316"/>
</svg>
