<svg width="68" height="68" viewBox="0 0 68 68" fill="none" xmlns="http://www.w3.org/2000/svg">
<path d="M42.9958 31.1667H27.8375C27.6014 31.7334 27.318 32.2887 26.9875 32.8328C26.6569 33.3768 26.2555 33.8367 25.7833 34.2126L27.8375 56.6668H42.9958L45.05 34.2126C44.5778 33.7876 44.1764 33.3154 43.8458 32.7959C43.5153 32.2765 43.2319 31.7334 42.9958 31.1667ZM27.0583 19.8334L26.2792 22.9501C26.6097 23.3279 26.9053 23.7292 27.166 24.1542C27.4267 24.5792 27.6505 25.0279 27.8375 25.5001H42.9958C43.1847 25.0279 43.4095 24.5792 43.6702 24.1542C43.9308 23.7292 44.2255 23.3279 44.5542 22.9501L43.775 19.8334H27.0583ZM27.8375 62.3334C26.3736 62.3334 25.0986 61.8489 24.0125 60.8799C22.9264 59.9109 22.3125 58.6954 22.1708 57.2334L19.975 32.7251C19.9278 32.2529 20.0109 31.8165 20.2243 31.4161C20.4378 31.0156 20.756 30.6964 21.1792 30.4584C21.5569 30.2223 21.8875 29.939 22.1708 29.6084C22.4542 29.2779 22.5958 28.8765 22.5958 28.4042C22.5958 27.9792 22.5014 27.5892 22.3125 27.2341C22.1236 26.879 21.8403 26.5843 21.4625 26.3501C20.9903 26.114 20.6361 25.7485 20.4 25.2536C20.1639 24.7587 20.1167 24.2506 20.2583 23.7292L22.1 16.2917C22.2417 15.6306 22.5722 15.1112 23.0917 14.7334C23.6111 14.3556 24.2014 14.1667 24.8625 14.1667H32.5833V11.3334H31.1667C30.3639 11.3334 29.6914 11.0624 29.1493 10.5202C28.6072 9.97814 28.3352 9.30475 28.3333 8.50008C28.3314 7.69541 28.6034 7.02297 29.1493 6.48275C29.6952 5.94253 30.3677 5.67053 31.1667 5.66675H39.6667C40.4694 5.66675 41.1428 5.93875 41.6868 6.48275C42.2308 7.02675 42.5019 7.69919 42.5 8.50008C42.4981 9.30097 42.2261 9.97436 41.684 10.5202C41.1419 11.0661 40.4694 11.3372 39.6667 11.3334H38.25V14.1667H45.9708C46.6319 14.1667 47.2109 14.3556 47.7077 14.7334C48.2044 15.1112 48.5227 15.6306 48.6625 16.2917L50.575 23.7292C50.7167 24.2487 50.6694 24.7568 50.4333 25.2536C50.1972 25.7504 49.843 26.1159 49.3708 26.3501C48.993 26.539 48.6984 26.7987 48.4868 27.1292C48.2753 27.4598 48.1685 27.8376 48.1667 28.2626C48.1667 28.782 48.297 29.2193 48.5577 29.5744C48.8183 29.9295 49.1602 30.2242 49.5833 30.4584C50.0064 30.6926 50.337 31.0119 50.575 31.4161C50.813 31.8203 50.9074 32.2566 50.8583 32.7251L48.6625 57.1626C48.5208 58.6265 47.9069 59.8543 46.8208 60.8459C45.7347 61.8376 44.4597 62.3334 42.9958 62.3334H27.8375Z" fill="#3B82F6"/>
</svg>
