<svg width="56" height="56" viewBox="0 0 56 56" fill="none" xmlns="http://www.w3.org/2000/svg">
<rect width="56" height="56" rx="28" fill="#EFF6FF"/>
<path d="M18.6667 20H42.6667V36H18.6667V20ZM30.6667 24C31.7276 24 32.745 24.4214 33.4951 25.1716C34.2453 25.9217 34.6667 26.9391 34.6667 28C34.6667 29.0609 34.2453 30.0783 33.4951 30.8284C32.745 31.5786 31.7276 32 30.6667 32C29.6058 32 28.5884 31.5786 27.8383 30.8284C27.0881 30.0783 26.6667 29.0609 26.6667 28C26.6667 26.9391 27.0881 25.9217 27.8383 25.1716C28.5884 24.4214 29.6058 24 30.6667 24ZM24 22.6667C24 23.3739 23.7191 24.0522 23.219 24.5523C22.7189 25.0524 22.0406 25.3333 21.3334 25.3333V30.6667C22.0406 30.6667 22.7189 30.9476 23.219 31.4477C23.7191 31.9478 24 32.6261 24 33.3333H37.3334C37.3334 32.6261 37.6143 31.9478 38.1144 31.4477C38.6145 30.9476 39.2928 30.6667 40 30.6667V25.3333C39.2928 25.3333 38.6145 25.0524 38.1144 24.5523C37.6143 24.0522 37.3334 23.3739 37.3334 22.6667H24ZM13.3334 25.3333H16V38.6667H37.3334V41.3333H13.3334V25.3333Z" fill="#3B82F6"/>
</svg>
