<svg width="24" height="24" viewBox="0 0 24 24" fill="none" xmlns="http://www.w3.org/2000/svg">
<path d="M4.58691 3.87V18.696L7.93491 22.043H14.4529L18.9349 3.87H4.58691Z" fill="#C9F7CA"/>
<path d="M18.2269 6.74L18.9349 3.87H4.58691V6.74H18.2269Z" fill="#78EB7B"/>
<path d="M20.3699 3.87H3.62988V1.957C3.62988 1.70319 3.73071 1.45977 3.91018 1.2803C4.08965 1.10083 4.33307 1 4.58688 1H17.4999C17.8768 1 18.25 1.07423 18.5982 1.21847C18.9464 1.3627 19.2628 1.5741 19.5293 1.8406C19.7958 2.10711 20.0072 2.42349 20.1514 2.7717C20.2956 3.1199 20.3699 3.49311 20.3699 3.87Z" fill="#C9F7CA" stroke="#191919" stroke-linecap="round" stroke-linejoin="round"/>
<path d="M18.9349 3.87L14.4519 22.044H7.93491M4.58691 18.696V3.87" stroke="#191919" stroke-linecap="round" stroke-linejoin="round"/>
<path d="M6.02187 23C6.33593 23 6.64691 22.9381 6.93706 22.8179C7.22721 22.6978 7.49085 22.5216 7.71292 22.2995C7.93499 22.0775 8.11115 21.8138 8.23133 21.5237C8.35151 21.2335 8.41337 20.9225 8.41337 20.6085C8.41337 20.2944 8.35151 19.9834 8.23133 19.6933C8.11115 19.4031 7.93499 19.1395 7.71292 18.9174C7.49085 18.6954 7.22721 18.5192 6.93706 18.399C6.64691 18.2788 6.33593 18.217 6.02187 18.217C5.38761 18.217 4.77932 18.4689 4.33083 18.9174C3.88233 19.3659 3.63037 19.9742 3.63037 20.6085C3.63037 21.2427 3.88233 21.851 4.33083 22.2995C4.77932 22.748 5.38761 23 6.02187 23Z" fill="#808080" stroke="#191919" stroke-linecap="round" stroke-linejoin="round"/>
</svg>
