<svg width="29" height="29" viewBox="0 0 29 29" fill="none" xmlns="http://www.w3.org/2000/svg">
<path d="M6.04171 7.25H27.7917V21.75H6.04171V7.25ZM16.9167 10.875C17.8781 10.875 18.8002 11.2569 19.48 11.9367C20.1598 12.6166 20.5417 13.5386 20.5417 14.5C20.5417 15.4614 20.1598 16.3834 19.48 17.0633C18.8002 17.7431 17.8781 18.125 16.9167 18.125C15.9553 18.125 15.0333 17.7431 14.3534 17.0633C13.6736 16.3834 13.2917 15.4614 13.2917 14.5C13.2917 13.5386 13.6736 12.6166 14.3534 11.9367C15.0333 11.2569 15.9553 10.875 16.9167 10.875ZM10.875 9.66667C10.875 10.3076 10.6204 10.9223 10.1672 11.3755C9.714 11.8287 9.09931 12.0833 8.45837 12.0833V16.9167C9.09931 16.9167 9.714 17.1713 10.1672 17.6245C10.6204 18.0777 10.875 18.6924 10.875 19.3333H22.9584C22.9584 18.6924 23.213 18.0777 23.6662 17.6245C24.1194 17.1713 24.7341 16.9167 25.375 16.9167V12.0833C24.7341 12.0833 24.1194 11.8287 23.6662 11.3755C23.213 10.9223 22.9584 10.3076 22.9584 9.66667H10.875ZM1.20837 12.0833H3.62504V24.1667H22.9584V26.5833H1.20837V12.0833Z" fill="#344E41"/>
</svg>
